<?xml version="1.0" encoding="UTF-8"?>
<svg id="Layer_1" data-name="Layer 1" xmlns="http://www.w3.org/2000/svg" viewBox="0 0 338.04 75.7">
  <defs>
    <style>
      .cls-1 {
        fill: #fff;
      }
    </style>
  </defs>
  <g>
    <path class="cls-1" d="M17.34,46.38c19.04,11.09,29.06-2.81,29.06-2.81l-8.2-16.31c-3.89,3.39-13.91,11.01-20.86,19.12Z"/>
    <path class="cls-1" d="M40.86,4.86c2.74,1.48,7.91,11.28,9.69,14.32,1.93,3.32,15.73,31.34,18.21,32.99,0,0,2.33,2.25,3.16,2.19,2.42-4.99,3.79-10.59,3.79-16.51C75.7,16.95,58.76,0,37.85,0c-5.1,0-9.96,1.02-14.4,2.84,4.7-1.34,11.89-1.69,17.41,2.02Z"/>
    <path class="cls-1" d="M57.37,60.28c-3.63-3.11-6.25-8.72-8.32-11.7-8.03,6.08-16.85,13.91-29.85,13.91,0,0-7.96,.02-11.1-1.33,6.96,8.85,17.74,14.55,29.75,14.55s22.68-5.59,29.62-14.3c-2.51,.96-5.72,1.49-10.1-1.13Z"/>
    <path class="cls-1" d="M32.41,23.92c.75-1.07,1.51-2.41,2.12-3.79,0,0-4.88-15.02-15.23-15.27C7.78,11.36,0,23.69,0,37.85c0,5.23,1.08,10.21,3.01,14.74,14.76-13.67,20.54-16.09,29.39-28.67Z"/>
  </g>
  <g>
    <path class="cls-1" d="M106.55,16.82h5.79l15.63,35.78h-6.6l-3.6-8.58h-16.8l-3.65,8.58h-6.4l15.63-35.78Zm8.93,21.67l-6.14-14.21-6.09,14.21h12.23Z"/>
    <path class="cls-1" d="M134.05,17.07h15.83c4.46,0,7.97,1.32,10.25,3.55,1.88,1.93,2.94,4.57,2.94,7.66v.1c0,5.84-3.5,9.34-8.42,10.76l9.59,13.45h-7.41l-8.73-12.38h-7.82v12.38h-6.24V17.07Zm15.38,17.61c4.47,0,7.31-2.33,7.31-5.94v-.1c0-3.81-2.74-5.89-7.36-5.89h-9.08v11.93h9.13Z"/>
    <path class="cls-1" d="M169.16,34.94v-.1c0-10.1,7.56-18.37,18.32-18.37,6.55,0,10.5,2.28,13.9,5.53l-4.01,4.62c-2.84-2.64-5.89-4.42-9.95-4.42-6.75,0-11.72,5.58-11.72,12.54v.1c0,6.95,4.92,12.59,11.72,12.59,4.36,0,7.16-1.72,10.2-4.57l4.01,4.06c-3.7,3.86-7.76,6.29-14.41,6.29-10.35,0-18.07-8.07-18.07-18.27Z"/>
    <path class="cls-1" d="M220.77,16.82h5.79l15.63,35.78h-6.6l-3.6-8.58h-16.8l-3.65,8.58h-6.39l15.63-35.78Zm8.93,21.67l-6.14-14.21-6.09,14.21h12.23Z"/>
    <path class="cls-1" d="M248.27,17.07h13.24c11.16,0,18.88,7.66,18.88,17.66v.1c0,10-7.71,17.76-18.88,17.76h-13.24V17.07Zm6.24,5.68v24.16h7c7.46,0,12.33-5.02,12.33-11.98v-.1c0-6.95-4.87-12.08-12.33-12.08h-7Z"/>
    <path class="cls-1" d="M288.31,17.07h6.24V52.6h-6.24V17.07Z"/>
    <path class="cls-1" d="M316.62,16.82h5.79l15.63,35.78h-6.6l-3.6-8.58h-16.8l-3.65,8.58h-6.39l15.63-35.78Zm8.93,21.67l-6.14-14.21-6.09,14.21h12.23Z"/>
  </g>
</svg>